<?xml version="1.0" encoding="UTF-8"?><svg id="_イヤー_1" xmlns="http://www.w3.org/2000/svg" viewBox="0 0 23 22.99"><defs><style>.cls-1{fill:#fff;}</style></defs><path class="cls-1" d="M11.5,5.6c-3.26,0-5.9,2.63-5.9,5.9s2.63,5.9,5.9,5.9,5.9-2.63,5.9-5.9-2.63-5.9-5.9-5.9Zm0,9.73c-2.11,0-3.83-1.72-3.83-3.83s1.72-3.83,3.83-3.83,3.83,1.72,3.83,3.83-1.72,3.83-3.83,3.83h0Zm7.51-9.97c0,.76-.62,1.38-1.38,1.38s-1.38-.62-1.38-1.38,.62-1.38,1.38-1.38,1.38,.62,1.38,1.38Zm3.9,1.4c-.09-1.84-.51-3.47-1.86-4.82-1.34-1.34-2.98-1.77-4.82-1.86C14.35-.03,8.65-.03,6.76,.08c-1.84,.09-3.47,.51-4.82,1.85S.17,4.91,.08,6.75C-.03,8.65-.03,14.34,.08,16.24c.09,1.84,.51,3.47,1.86,4.82,1.35,1.34,2.98,1.77,4.82,1.86,1.9,.11,7.59,.11,9.49,0,1.84-.09,3.47-.51,4.82-1.86,1.34-1.34,1.77-2.98,1.86-4.82,.11-1.9,.11-7.58,0-9.48h0Zm-2.45,11.52c-.4,1.01-1.18,1.78-2.19,2.19-1.51,.6-5.11,.46-6.78,.46s-5.27,.13-6.78-.46c-1.01-.4-1.78-1.18-2.19-2.19-.6-1.51-.46-5.11-.46-6.78s-.13-5.27,.46-6.78c.4-1.01,1.18-1.78,2.19-2.19,1.51-.6,5.11-.46,6.78-.46s5.27-.13,6.78,.46c1.01,.4,1.78,1.18,2.19,2.19,.6,1.51,.46,5.11,.46,6.78s.14,5.27-.46,6.78Z"/></svg>