<svg xmlns="http://www.w3.org/2000/svg" width="32" height="32" viewBox="0 0 32 32"><path d="M16,2.883c4.272,0,4.778.016,6.465.093a8.846,8.846,0,0,1,2.971.551,4.954,4.954,0,0,1,1.84,1.2,4.954,4.954,0,0,1,1.2,1.84,8.846,8.846,0,0,1,.551,2.971c.077,1.687.093,2.193.093,6.465s-.016,4.778-.093,6.465a8.846,8.846,0,0,1-.551,2.971,5.3,5.3,0,0,1-3.037,3.037,8.846,8.846,0,0,1-2.971.551c-1.687.077-2.193.093-6.465.093s-4.778-.016-6.465-.093a8.846,8.846,0,0,1-2.971-.551,4.954,4.954,0,0,1-1.84-1.2,4.954,4.954,0,0,1-1.2-1.84,8.846,8.846,0,0,1-.551-2.971C2.9,20.778,2.883,20.272,2.883,16s.016-4.778.093-6.465a8.846,8.846,0,0,1,.551-2.971,4.954,4.954,0,0,1,1.2-1.84,4.954,4.954,0,0,1,1.84-1.2,8.846,8.846,0,0,1,2.971-.551C11.222,2.9,11.728,2.883,16,2.883M16,0c-4.345,0-4.89.018-6.6.1A11.741,11.741,0,0,0,5.519.84,7.855,7.855,0,0,0,2.685,2.685,7.855,7.855,0,0,0,.84,5.519,11.741,11.741,0,0,0,.1,9.4C.018,11.11,0,11.655,0,16s.018,4.89.1,6.6A11.741,11.741,0,0,0,.84,26.481a7.855,7.855,0,0,0,1.845,2.834A7.855,7.855,0,0,0,5.519,31.16,11.741,11.741,0,0,0,9.4,31.9c1.707.078,2.252.1,6.6.1s4.89-.018,6.6-.1a11.741,11.741,0,0,0,3.884-.744,8.176,8.176,0,0,0,4.679-4.679A11.741,11.741,0,0,0,31.9,22.6c.078-1.707.1-2.252.1-6.6s-.018-4.89-.1-6.6a11.741,11.741,0,0,0-.744-3.884,7.855,7.855,0,0,0-1.845-2.834A7.855,7.855,0,0,0,26.481.84,11.741,11.741,0,0,0,22.6.1C20.89.018,20.345,0,16,0Z"/><path d="M16,7.784A8.216,8.216,0,1,0,24.216,16,8.215,8.215,0,0,0,16,7.784Zm0,13.549A5.333,5.333,0,1,1,21.333,16,5.332,5.332,0,0,1,16,21.333Z"/><circle cx="24.541" cy="7.459" r="1.92"/></svg>