<?xml version="1.0" encoding="utf-8"?>
<!-- Generator: Adobe Illustrator 26.0.0, SVG Export Plug-In . SVG Version: 6.00 Build 0)  -->
<svg version="1.1" id="レイヤー_1" xmlns="http://www.w3.org/2000/svg" xmlns:xlink="http://www.w3.org/1999/xlink" x="0px"
	 y="0px" viewBox="0 0 36 30" style="enable-background:new 0 0 36 30;" xml:space="preserve">
<style type="text/css">
	.st0{fill:#999999;}
</style>
<path class="st0" d="M36,3.6c-1.3,0.6-2.7,1-4.2,1.2c1.5-0.9,2.7-2.4,3.2-4.2c-1.4,0.9-3,1.5-4.7,1.8C29,0.9,27,0,24.9,0
	c-4.8,0-8.3,4.6-7.2,9.3C11.6,9,6.1,6,2.5,1.4c-1.9,3.4-1,7.9,2.3,10.1c-1.2,0-2.3-0.4-3.3-0.9c-0.1,3.5,2.4,6.8,5.9,7.5
	c-1,0.3-2.2,0.4-3.3,0.1c0.9,3,3.7,5.2,6.9,5.3C7.8,26,3.9,27.1,0,26.6C3.3,28.7,7.2,30,11.3,30c13.7,0,21.5-11.9,21-22.5
	C33.8,6.4,35,5.1,36,3.6z"/>
</svg>
