<?xml version="1.0" encoding="utf-8"?>
<!-- Generator: Adobe Illustrator 26.0.2, SVG Export Plug-In . SVG Version: 6.00 Build 0)  -->
<svg version="1.1" id="レイヤー_1" xmlns="http://www.w3.org/2000/svg" xmlns:xlink="http://www.w3.org/1999/xlink" x="0px"
	 y="0px" viewBox="0 0 20 23" style="enable-background:new 0 0 20 23;" xml:space="preserve">
<style type="text/css">
	.st0{fill:#727171;}
	.st1{fill:#231815;}
</style>
<polygon class="st0" points="9.4,0.3 3.5,8.5 6.9,8.5 6.9,14 12.4,14 12.4,8.4 15.9,8.3 "/>
<path class="st1" d="M1.4,18.5c0.7,0,1,0.4,1,1.2c0,0.7-0.4,1.2-1,1.2H0.7v1.5c0,0.2-0.1,0.3-0.2,0.3s-0.2-0.1-0.2-0.3v-3.1
	c0-0.5,0.1-0.7,0.6-0.7H1.4z M1.3,20.3c0.3,0,0.5-0.3,0.5-0.7c0-0.4-0.2-0.6-0.5-0.6H1c-0.2,0-0.2,0.1-0.2,0.3v1H1.3z"/>
<path class="st1" d="M3.5,18.8c0.1-0.3,0.2-0.4,0.4-0.4c0.2,0,0.3,0.1,0.4,0.4l0.9,3.3c0,0,0,0.1,0,0.1c0,0.1-0.1,0.3-0.2,0.3
	c0,0,0,0,0,0c-0.1,0-0.2-0.1-0.2-0.2l-0.3-1.2h-1l-0.3,1.2c0,0.1-0.1,0.2-0.2,0.2c-0.1,0-0.3-0.1-0.3-0.3c0,0,0,0,0,0
	c0-0.1,0-0.1,0-0.2L3.5,18.8z M3.9,19.1c-0.1,0.3-0.1,0.6-0.2,0.8l-0.2,0.8h0.7l-0.2-0.8C4,19.6,4,19.4,3.9,19.1L3.9,19.1z"/>
<path class="st1" d="M7.5,21c0-0.2,0-0.2-0.1-0.2H6.9c-0.1,0-0.2-0.1-0.2-0.3c0-0.2,0.1-0.3,0.2-0.3h0.6c0.3,0,0.4,0.2,0.4,0.6v1.5
	c0,0.2-0.1,0.3-0.2,0.3s-0.2-0.1-0.2-0.3v-0.1c-0.1,0.2-0.4,0.4-0.7,0.4c-0.8,0-1.4-0.8-1.4-2.1s0.6-2.1,1.4-2.1
	c0.3,0,0.6,0.1,0.9,0.4c0.1,0.1,0.2,0.2,0.1,0.3c0,0.1-0.1,0.3-0.2,0.3c-0.1,0-0.1,0-0.2-0.1C7.3,19.1,7,19,6.8,19
	C6.3,19,6,19.6,6,20.5s0.4,1.6,0.9,1.6c0.3,0,0.6-0.2,0.7-0.5L7.5,21z"/>
<path class="st1" d="M10.4,22c0.1,0,0.2,0.1,0.2,0.3s-0.1,0.3-0.2,0.3H9.2c-0.5,0-0.6-0.2-0.6-0.7v-2.6c0-0.5,0.1-0.7,0.6-0.7h1.1
	c0.1,0,0.2,0.1,0.2,0.3S10.4,19,10.3,19h-1c-0.2,0-0.2,0.1-0.2,0.3v0.8h1c0.1,0,0.2,0.1,0.2,0.3s-0.1,0.3-0.2,0.3h-1v1
	c0,0.2,0,0.3,0.2,0.3L10.4,22z"/>
<path class="st1" d="M13.3,22.3c0,0.2-0.1,0.3-0.2,0.3c-0.1,0-0.3-0.1-0.3-0.3V19h-0.7c-0.1,0-0.2-0.1-0.2-0.3s0.1-0.3,0.2-0.3H14
	c0.1,0,0.2,0.1,0.2,0.3S14.1,19,14,19h-0.7V22.3z"/>
<path class="st1" d="M14.4,20.5c0-1.4,0.6-2.1,1.3-2.1c0.7,0,1.3,0.7,1.3,2.1s-0.6,2.1-1.3,2.1S14.4,21.9,14.4,20.5z M16.6,20.5
	c0-1-0.3-1.6-0.8-1.6c-0.5,0-0.8,0.6-0.8,1.6s0.3,1.6,0.8,1.6C16.3,22.1,16.6,21.5,16.6,20.5L16.6,20.5z"/>
<path class="st1" d="M18.8,18.5c0.7,0,1,0.4,1,1.2c0,0.7-0.4,1.2-1,1.2h-0.6v1.5c0,0.2-0.1,0.3-0.2,0.3s-0.2-0.1-0.2-0.3v-3.1
	c0-0.5,0.1-0.7,0.6-0.7H18.8z M18.7,20.3c0.3,0,0.5-0.3,0.5-0.7c0-0.4-0.2-0.6-0.5-0.6h-0.4c-0.2,0-0.2,0.1-0.2,0.3v1H18.7z"/>
</svg>
